<?xml version="1.0" standalone="no"?>
<!DOCTYPE svg PUBLIC "-//W3C//DTD SVG 20010904//EN"
 "http://www.w3.org/TR/2001/REC-SVG-20010904/DTD/svg10.dtd">
<svg version="1.0" xmlns="http://www.w3.org/2000/svg"
 width="300.000000pt" height="300.000000pt" viewBox="0 0 300.000000 300.000000"
 preserveAspectRatio="xMidYMid meet">
<metadata>
Created by potrace 1.14, written by Peter Selinger 2001-2017
</metadata>
<g transform="translate(0.000000,300.000000) scale(0.100000,-0.100000)"
fill="#000000" stroke="none">
<path d="M0 1500 l0 -1500 1500 0 1500 0 0 1500 0 1500 -1500 0 -1500 0 0
-1500z m1390 851 c109 -41 208 -140 252 -251 18 -44 22 -76 22 -160 1 -98 -1
-110 -31 -173 -44 -93 -119 -169 -212 -215 -67 -33 -84 -37 -168 -40 -73 -3
-105 0 -153 16 -136 46 -241 153 -281 284 -18 57 -21 87 -17 160 5 77 11 100
42 163 57 114 154 195 279 230 70 20 195 13 267 -14z m989 -437 c19 -24 21
-40 21 -145 l0 -119 122 0 c111 0 124 -2 145 -22 29 -27 30 -71 3 -98 -18 -18
-33 -20 -145 -20 l-125 0 0 -125 c0 -112 -2 -127 -20 -145 -33 -33 -75 -30
-107 6 -21 23 -23 35 -23 145 l0 119 -124 0 c-123 0 -125 0 -145 26 -12 15
-21 34 -21 44 0 10 9 29 21 44 20 26 22 26 144 26 l123 0 4 124 c2 105 6 127
22 145 28 31 79 28 105 -5z m-952 -565 c235 -32 411 -113 535 -247 64 -70 121
-176 138 -258 21 -102 -2 -162 -73 -195 -40 -18 -77 -19 -792 -19 -718 0 -752
1 -792 20 -77 35 -99 104 -68 219 25 95 66 162 155 252 72 74 99 93 180 132
100 48 212 81 326 96 99 12 300 13 391 0z"/>
</g>
</svg>
